<?xml version="1.0" encoding="utf-8"?>
<!-- Generator: Adobe Illustrator 16.0.3, SVG Export Plug-In . SVG Version: 6.00 Build 0)  -->
<!DOCTYPE svg PUBLIC "-//W3C//DTD SVG 1.1//EN" "http://www.w3.org/Graphics/SVG/1.1/DTD/svg11.dtd">
<svg version="1.1" id="Layer_1" xmlns="http://www.w3.org/2000/svg" xmlns:xlink="http://www.w3.org/1999/xlink" x="0px" y="0px"
	 width="320px" height="320px" viewBox="0 0 320 320" enable-background="new 0 0 320 320" xml:space="preserve">
<g>
	<rect x="-1360" fill="none" stroke="#EAF51F" stroke-miterlimit="10" width="320" height="320"/>
	<g>
		<path d="M-1091.065,92.831c-7.017-7.074-16.367-10.979-26.323-11.017l-20.066-0.075c7.247-1.419,13.917-4.936,19.271-10.257
			c7.161-7.101,11.109-16.571,11.155-26.648c0.043-14.29-7.806-27.208-20.509-33.74c-5.258-2.709-11.175-4.141-17.101-4.152
			c-10.093-0.05-19.591,3.846-26.75,10.948c-7.154,7.108-11.109,16.568-11.148,26.657c-0.061,14.279,7.799,27.208,20.514,33.741
			c3.397,1.744,7.104,2.751,10.877,3.401l-21.303-0.081c-20.558-0.06-37.345,16.615-37.422,37.179l-0.272,75.037
			c-0.034,9.958,3.817,19.327,10.838,26.395c2.802,2.836,5.985,5.163,9.433,6.938c2.526,1.305,5.19,2.274,7.947,2.957l-0.182,51.292
			c-0.022,8.368,3.211,16.242,9.096,22.165c2.361,2.378,5.025,4.318,7.91,5.801c4.34,2.236,9.172,3.416,14.176,3.436l10.249,0.042
			c17.254,0.061,31.33-13.927,31.391-31.172l0.182-51.376c6.575-1.566,12.654-4.797,17.573-9.691
			c7.077-7.019,10.995-16.364,11.021-26.325l0.276-75.041C-1080.201,109.273-1084.033,99.898-1091.065,92.831z M-1164.638,44.615
			c0.017-5.301,2.106-10.281,5.858-14.024c3.773-3.729,8.76-5.778,14.066-5.757c3.176,0.007,6.21,0.739,9,2.188
			c6.682,3.427,10.812,10.223,10.779,17.742c-0.017,5.303-2.107,10.283-5.858,14.024c-3.767,3.73-8.77,5.779-14.071,5.759
			C-1155.614,64.501-1164.677,55.261-1164.638,44.615z M-1098.408,194.214c-0.011,5.177-2.052,10.041-5.719,13.689
			c-3.674,3.653-8.557,5.65-13.734,5.643c-0.013,0-0.034,0.008-0.046,0.008c-0.032,0-0.054-0.022-0.088-0.022
			c-4.938-0.021-8.968,3.984-8.979,8.926l-0.199,59.152c-0.033,7.372-6.057,13.36-13.441,13.338l-10.254-0.052
			c-3.553,0-6.935-1.417-9.443-3.94c-2.511-2.54-3.906-5.915-3.895-9.478l0.216-59.151c0.015-4.968-3.984-8.995-8.91-8.995l0,0
			h-0.01c-10.679-0.012-19.36-8.745-19.334-19.447l0.271-75.029c0.043-10.704,8.77-19.376,19.465-19.346l55.055,0.204
			c5.18,0.02,10.043,2.049,13.679,5.736c3.657,3.67,5.659,8.543,5.638,13.728L-1098.408,194.214z"/>
		<path d="M-1245.305,125.844l-16.239-0.057c5.867-1.152,11.261-4,15.587-8.301c5.803-5.754,9.005-13.417,9.033-21.573
			c0.05-11.563-6.318-22.021-16.599-27.313c-4.26-2.188-9.044-3.359-13.849-3.368c-8.162-0.031-15.852,3.125-21.638,8.876
			c-5.792,5.743-8.997,13.407-9.024,21.56c-0.059,11.574,6.308,22.032,16.599,27.325c2.745,1.409,5.732,2.223,8.773,2.747
			l-17.201-0.061c-16.641-0.048-30.244,13.448-30.302,30.086l-0.214,60.754c-0.039,11.718,6.652,21.921,16.435,26.954
			c2.01,1.035,4.167,1.839,6.412,2.404l-0.151,41.519c-0.02,6.777,2.586,13.145,7.353,17.956c1.905,1.904,4.073,3.488,6.417,4.69
			c3.494,1.795,7.403,2.762,11.462,2.762l8.3,0.042c13.967,0.039,25.362-11.279,25.404-25.236l0.138-41.566
			c5.328-1.278,10.249-3.896,14.234-7.856c5.733-5.692,8.896-13.247,8.916-21.307l0.234-60.743
			C-1215.173,139.509-1228.642,125.906-1245.305,125.844z M-1283.542,95.729c0.009-4.287,1.697-8.322,4.732-11.339
			c3.051-3.027,7.103-4.675,11.392-4.668c2.565,0.01,5.015,0.598,7.275,1.77c5.416,2.772,8.756,8.278,8.74,14.364
			c-0.022,4.288-1.7,8.319-4.75,11.349c-3.056,3.026-7.097,4.688-11.385,4.669C-1276.26,111.844-1283.582,104.362-1283.542,95.729z
			 M-1229.94,216.828c-0.008,4.185-1.661,8.134-4.636,11.079c-2.984,2.948-6.925,4.565-11.118,4.562
			c-0.019,0-0.03,0.004-0.052,0.004c-0.02,0-0.034-0.004-0.052-0.004c-4.005-0.013-7.257,3.218-7.275,7.216l-0.168,47.881
			c-0.021,5.969-4.891,10.813-10.858,10.8l-8.302-0.043c-2.871-0.004-5.604-1.13-7.644-3.188c-2.033-2.054-3.155-4.788-3.146-7.678
			l0.167-47.881c0.018-4.001-3.225-7.255-7.218-7.281c-8.661-0.014-15.677-7.08-15.643-15.735l0.212-60.735
			c0.03-8.659,7.102-15.682,15.763-15.661l44.563,0.178c8.652,0.026,15.661,7.089,15.634,15.74L-1229.94,216.828z"/>
	</g>
</g>
<g>
	<rect x="-1019.998" fill="none" stroke="#EAF51F" stroke-miterlimit="10" width="319.998" height="320"/>
	<g>
		<path fill="#010102" d="M-859.982,26.388c-49.665,0-89.898,40.244-89.898,89.893c0,27.475,12.312,52.027,31.706,68.519v27.739
			c0,7.783,6.321,14.104,14.109,14.104h2.107v37.371c0,7.783,6.32,14.088,14.098,14.088h3.53v1.412
			c0,7.782,6.31,14.104,14.121,14.104h22.56c7.777,0,14.099-6.321,14.099-14.104v-1.412h1.412c7.777,0,14.088-6.305,14.088-14.088
			v-37.371h2.129c7.788,0,14.099-6.32,14.099-14.104V184.8c19.405-16.492,31.704-41.044,31.704-68.508
			C-770.119,66.632-810.352,26.388-859.982,26.388z M-817.533,171.732v27.403c0,7.793-6.332,14.099-14.099,14.099h-55.71
			c-7.767,0-14.076-6.306-14.076-14.099v-27.403c-16.923-12.996-27.833-33.62-27.833-56.852c0-39.301,31.23-71.15,69.754-71.15
			c38.544,0,69.798,31.849,69.798,71.15C-789.699,138.113-800.632,158.737-817.533,171.732z"/>
		<path fill="#010102" d="M-856.111,55.998c-33.105,0.011-59.946,26.846-59.946,59.941c0,3.105,2.516,5.637,5.638,5.637
			s5.658-2.515,5.658-5.637c0-13.459,5.428-25.583,14.243-34.414c8.825-8.809,20.96-14.237,34.407-14.237
			c3.101,0,5.615-2.526,5.615-5.648C-850.496,58.529-853.011,55.998-856.111,55.998z"/>
	</g>
</g>
<g>
	<rect x="-680" fill="none" stroke="#EAF51F" stroke-miterlimit="10" width="320" height="320"/>
	<path d="M-520,25.34c-74.25,0-134.66,60.41-134.66,134.654c0,74.261,60.41,134.671,134.66,134.671
		c74.245,0,134.655-60.41,134.655-134.671C-385.345,85.75-445.755,25.34-520,25.34z M-424.752,92.529
		c-5.509,1.622-11.351,3.69-16.586,7.601c-7.033,5.246-11.76,13.343-15.643,20.519c-2.721,5.031-3.944,10.332-5.03,15.014
		c-0.453,1.92-0.882,3.834-1.435,5.704c-1.958,6.613-4.055,11.76-8.411,16.884c-2.632,3.094-5.593,5.908-8.562,8.737
		c-2.576,2.455-5.142,4.938-7.546,7.535l-4.805,5.251c-3.762,4.132-7.513,8.263-11.484,12.19l-3.706,3.723
		c-6.955,7.033-14.153,14.314-21.985,17.502c-1.016,0.414-1.656,0.597-4.132-0.325c-8.016-2.885-12.996-6.277-18.386-12.516
		c-2.194-2.554-4.722-4.909-7.28-7.259c-3.905-3.618-7.606-7.033-9.179-10.922c-2.272-5.62-1.902-12.537-1.494-19.862l0.165-3.127
		c0.22-4.744,1.545-9.592,2.94-14.733l0.552-2.013c0.291-1.086,0.557-2.25,0.8-3.414c0.391-1.727,1.014-4.623,1.637-5.196
		c0.982-0.778,5.219-0.838,7.237-0.877l4.683-0.104c13.609-0.326,27.67-0.656,41.618-5.053c11.187-3.525,15.462-11.82,19.472-19.609
		c4.252-8.247,8.583-26.791,13.414-48.375c0.651-2.946,1.264-5.66,1.804-8.025C-455.321,60.234-437.576,74.486-424.752,92.529z
		 M-520,276.854c-64.438,0-116.859-52.411-116.859-116.859c0-64.431,52.422-116.855,116.859-116.855
		c9.268,0,18.235,1.197,26.885,3.25c-0.634,2.73-1.346,5.94-2.156,9.537c-3.105,13.912-8.318,37.211-12.107,44.568
		c-3.515,6.823-4.972,9.124-8.761,10.321c-11.532,3.64-23.744,3.927-36.68,4.236l-4.528,0.1c-5.257,0.083-13.189,0.204-19.025,5.582
		c-4.765,4.386-6.051,10.227-6.966,14.502c-0.194,0.877-0.382,1.737-0.607,2.554l-0.529,1.963
		c-1.594,5.853-3.237,11.881-3.569,18.588l-0.137,2.991c-0.476,8.543-1.005,18.225,2.758,27.529
		c3.066,7.584,8.671,12.758,13.618,17.32c2.047,1.88,4.099,3.739,5.869,5.808c7.419,8.588,14.898,13.702,25.81,17.624
		c2.409,0.882,5.345,1.721,8.731,1.721c2.472,0,5.2-0.446,8.158-1.654c11.214-4.563,20.1-13.559,27.933-21.475l3.567-3.579
		c4.192-4.153,8.171-8.506,12.136-12.886l4.7-5.13c2.156-2.333,4.474-4.539,6.796-6.751c3.28-3.149,6.685-6.398,9.817-10.083
		c6.73-7.938,9.691-15.913,11.903-23.354c0.65-2.212,1.187-4.468,1.716-6.729c0.91-3.949,1.764-7.656,3.354-10.574
		c2.146-3.988,6.155-11.391,10.623-14.722c3.762-2.813,8.924-4.253,14.407-5.787c0.309-0.093,0.612-0.204,0.938-0.286
		c7.733,15.604,12.213,33.106,12.213,51.673C-403.134,224.442-455.567,276.854-520,276.854z"/>
</g>
<g>
	<rect x="-340" fill="none" stroke="#EAF51F" stroke-miterlimit="10" width="320" height="320"/>
	<g>
		<path fill="#010102" d="M-165.631,217.558c15.466-28.876,47.63-88.983,12.99-109.807c-19.653-11.79-49.152-7.578-75.535,9.968
			l-2.554,1.713l-2.874,26.661l9.752-3.309c4.479-1.517,8.67-2.328,12.173-2.328c6.995,0,8.17,3.111,8.616,4.28
			c5.643,14.855-8.936,41.899-19.593,61.635c-4.672,8.704-9.095,16.901-11.682,23.564c-10.145,26.096-5.538,41.403,0.121,49.665
			c6.983,10.205,19.537,15.798,35.357,15.798c15.378,0,32.77-5.316,47.751-14.616l2.73-1.694l2.9-27.221l-9.271,2.515
			c-9.896,2.703-17.402,2.107-19.891-1.539c-1.214-1.804-3.403-7.649,2.703-22.886C-171.021,227.63-168.522,222.952-165.631,217.558
			z M-185.505,260.207c2.774,4.104,8.467,9.003,19.813,9.003c1.661,0,3.387-0.111,5.175-0.315l-0.244,2.333
			c-12.3,7.045-26.007,11.032-38.097,11.032c-11.363,0-20.063-3.585-24.52-10.095c-5.521-8.075-5.096-21.049,1.28-37.475
			c2.294-5.907,6.53-13.757,11.021-22.075c12.516-23.2,28.087-52.082,20.298-72.546c-3.133-8.224-10.546-12.753-20.9-12.753
			c-2.161,0-4.401,0.188-6.751,0.563l0.083-0.861c13.254-8.246,27.552-12.94,39.682-12.94c7.319,0,13.795,1.66,19.234,4.942
			c23.933,14.375-5.307,69.005-17.778,92.326c-3.332,6.222-5.737,10.717-6.934,13.734
			C-190.348,240.548-190.811,252.396-185.505,260.207z"/>
		<path fill="#010102" d="M-154.699,24.604c-19.299,0-35.02,15.712-35.02,35.027c0,19.312,15.721,35.026,35.02,35.026
			c19.316,0,35.031-15.715,35.031-35.026C-119.668,40.316-135.383,24.604-154.699,24.604z M-154.699,81.518
			c-12.053,0-21.881-9.821-21.881-21.887c0-12.069,9.828-21.882,21.881-21.882c12.07,0,21.894,9.813,21.894,21.882
			C-132.806,71.696-142.629,81.518-154.699,81.518z"/>
	</g>
</g>
</svg>
